<mxfile host="app.diagrams.net" modified="2021-05-09T18:39:05.461Z" agent="5.0 (Macintosh; Intel Mac OS X 10_15_6) AppleWebKit/537.36 (KHTML, like Gecko) Chrome/90.0.4430.93 Safari/537.36" etag="YGQmrJmXYUEj39hZKYho" version="14.6.11" type="github">
  <diagram id="tuO6zUsFQC0VviAeXyuO" name="第 1 页">
    <mxGraphModel dx="804" dy="459" grid="1" gridSize="10" guides="1" tooltips="1" connect="1" arrows="1" fold="1" page="1" pageScale="1" pageWidth="827" pageHeight="1169" math="0" shadow="0">
      <root>
        <mxCell id="0" />
        <mxCell id="1" parent="0" />
        <mxCell id="wTKaJJ2O0vyU871rZi9u-1" value="角色表" style="whiteSpace=wrap;html=1;align=center;strokeWidth=2;fontSize=15;" vertex="1" parent="1">
          <mxGeometry x="330" y="260" width="100" height="40" as="geometry" />
        </mxCell>
        <mxCell id="wTKaJJ2O0vyU871rZi9u-3" value="角色中文名" style="ellipse;whiteSpace=wrap;html=1;align=center;strokeWidth=2;fontSize=15;" vertex="1" parent="1">
          <mxGeometry x="170" y="260" width="100" height="40" as="geometry" />
        </mxCell>
        <mxCell id="wTKaJJ2O0vyU871rZi9u-4" value="角色id" style="ellipse;whiteSpace=wrap;html=1;align=center;strokeWidth=2;fontSize=15;" vertex="1" parent="1">
          <mxGeometry x="330" y="170" width="100" height="40" as="geometry" />
        </mxCell>
        <mxCell id="wTKaJJ2O0vyU871rZi9u-5" value="角色英文名" style="ellipse;whiteSpace=wrap;html=1;align=center;strokeWidth=2;fontSize=15;" vertex="1" parent="1">
          <mxGeometry x="490" y="260" width="100" height="40" as="geometry" />
        </mxCell>
        <mxCell id="wTKaJJ2O0vyU871rZi9u-6" value="" style="endArrow=none;html=1;rounded=0;strokeWidth=2;entryX=0.5;entryY=1;entryDx=0;entryDy=0;exitX=0.5;exitY=0;exitDx=0;exitDy=0;fontSize=15;" edge="1" parent="1" source="wTKaJJ2O0vyU871rZi9u-1" target="wTKaJJ2O0vyU871rZi9u-4">
          <mxGeometry relative="1" as="geometry">
            <mxPoint x="150" y="160" as="sourcePoint" />
            <mxPoint x="310" y="160" as="targetPoint" />
          </mxGeometry>
        </mxCell>
        <mxCell id="wTKaJJ2O0vyU871rZi9u-7" value="" style="endArrow=none;html=1;rounded=0;strokeWidth=2;entryX=0;entryY=0.5;entryDx=0;entryDy=0;exitX=1;exitY=0.5;exitDx=0;exitDy=0;fontSize=15;" edge="1" parent="1" target="wTKaJJ2O0vyU871rZi9u-1" source="wTKaJJ2O0vyU871rZi9u-3">
          <mxGeometry relative="1" as="geometry">
            <mxPoint x="270" y="280" as="sourcePoint" />
            <mxPoint x="390" y="220" as="targetPoint" />
          </mxGeometry>
        </mxCell>
        <mxCell id="wTKaJJ2O0vyU871rZi9u-8" value="" style="endArrow=none;html=1;rounded=0;strokeWidth=2;entryX=1;entryY=0.5;entryDx=0;entryDy=0;exitX=0;exitY=0.5;exitDx=0;exitDy=0;fontSize=15;" edge="1" parent="1" source="wTKaJJ2O0vyU871rZi9u-5" target="wTKaJJ2O0vyU871rZi9u-1">
          <mxGeometry relative="1" as="geometry">
            <mxPoint x="400" y="280" as="sourcePoint" />
            <mxPoint x="400" y="230" as="targetPoint" />
          </mxGeometry>
        </mxCell>
      </root>
    </mxGraphModel>
  </diagram>
</mxfile>
